<mxfile host="app.diagrams.net" modified="2022-12-17T12:15:44.834Z" agent="5.0 (Windows NT 10.0; Win64; x64) AppleWebKit/537.36 (KHTML, like Gecko) Chrome/108.0.0.0 Safari/537.36" version="20.7.3" etag="JlUxytGHkFEt8Dv3gGBI" type="github">
  <diagram id="valsOfXE5LjKDrL84Ug_" name="Страница 1">
    <mxGraphModel dx="1196" dy="541" grid="1" gridSize="10" guides="1" tooltips="1" connect="1" arrows="1" fold="1" page="1" pageScale="1" pageWidth="827" pageHeight="1169" math="0" shadow="0">
      <root>
        <mxCell id="0" />
        <mxCell id="1" parent="0" />
        <mxCell id="3AVA2ccQ7zQ5Q5lWKBhm-3" style="edgeStyle=orthogonalEdgeStyle;rounded=0;orthogonalLoop=1;jettySize=auto;html=1;" edge="1" parent="1" source="3AVA2ccQ7zQ5Q5lWKBhm-1" target="3AVA2ccQ7zQ5Q5lWKBhm-6">
          <mxGeometry relative="1" as="geometry">
            <mxPoint x="360" y="50" as="targetPoint" />
            <Array as="points">
              <mxPoint x="320" y="160" />
              <mxPoint x="320" y="50" />
            </Array>
          </mxGeometry>
        </mxCell>
        <mxCell id="3AVA2ccQ7zQ5Q5lWKBhm-1" value="main()" style="rounded=0;whiteSpace=wrap;html=1;labelBackgroundColor=#FFFFFF;fillColor=#FFFFFF;" vertex="1" parent="1">
          <mxGeometry x="369" y="140" width="90" height="40" as="geometry" />
        </mxCell>
        <mxCell id="3AVA2ccQ7zQ5Q5lWKBhm-6" value="s(x)" style="rounded=0;whiteSpace=wrap;html=1;labelBackgroundColor=#FFFFFF;fillColor=#FFFFFF;" vertex="1" parent="1">
          <mxGeometry x="369" y="30" width="84" height="40" as="geometry" />
        </mxCell>
      </root>
    </mxGraphModel>
  </diagram>
</mxfile>
